<svg xmlns="http://www.w3.org/2000/svg" viewBox="0 0 123.05 97.05"><defs><style>.cls-1{fill:none;stroke:#000;stroke-linecap:round;stroke-linejoin:round;stroke-width:4px;}</style></defs><g id="Слой_2" data-name="Слой 2"><g id="Layer_1" data-name="Layer 1"><path class="cls-1" d="M115.06,74A27.31,27.31,0,0,1,78.49,51.2c-.09-.92-.14-1.86-.14-2.81,0-.57,0-1.13.05-1.69a27.32,27.32,0,0,1,35.47-24.34m7.18-16.6A38.29,38.29,0,0,0,69.42,25a38.26,38.26,0,1,0,.7,48.69,38.29,38.29,0,0,0,48.69,18.62M25.25,49.79a14.95,14.95,0,1,1,15,14.94A14.95,14.95,0,0,1,25.25,49.79Z"/><path class="cls-1" d="M67,22.59s10.4,8.35,11.33,28.59"/><path class="cls-1" d="M40.1,34.84c17.27,0,21.35,22.84,29.71,38.24"/><line class="cls-1" x1="113.44" y1="74.57" x2="116.96" y2="73.46"/></g></g></svg>